<svg width="88" height="49" viewBox="0 0 88 49" fill="none" xmlns="http://www.w3.org/2000/svg">
<path d="M39 47.7852C35.2891 47.7852 31.7729 47.3306 28.4517 46.4214C25.1489 45.5308 22.0874 44.3525 19.2671 42.8867C16.4468 41.4023 13.9048 39.7695 11.6411 37.9883C9.396 36.207 7.47559 34.4258 5.87988 32.6445C4.28418 30.8447 3.05957 29.1841 2.20605 27.6626C1.37109 26.1226 0.953613 24.8794 0.953613 23.9331C0.953613 22.9868 1.37109 21.7529 2.20605 20.2314C3.05957 18.6914 4.28418 17.0308 5.87988 15.2495C7.47559 13.4497 9.396 11.6592 11.6411 9.87793C13.9048 8.09668 16.4468 6.47314 19.2671 5.00732C22.106 3.52295 25.1768 2.33545 28.4795 1.44482C31.8008 0.535645 35.3076 0.0810547 39 0.0810547C42.2471 0.0810547 45.3364 0.424316 48.2681 1.11084C51.1997 1.79736 53.9458 2.7251 56.5063 3.89404C59.0854 5.06299 61.4419 6.38037 63.5757 7.84619C65.728 9.31201 67.6392 10.8335 69.3091 12.4106C70.979 13.9692 72.3799 15.4814 73.5117 16.9473C72.5469 16.7617 71.6006 16.7246 70.6729 16.8359C69.7637 16.9473 68.873 17.3091 68.001 17.9214C66.6094 16.4556 64.9023 14.9434 62.8799 13.3848C60.876 11.8262 58.6216 10.3696 56.1167 9.01514C53.6118 7.66064 50.9121 6.56592 48.0176 5.73096C45.1416 4.896 42.1357 4.47852 39 4.47852C35.9385 4.47852 32.9976 4.87744 30.1772 5.67529C27.3755 6.45459 24.7407 7.49365 22.2729 8.79248C19.8052 10.0728 17.5601 11.4644 15.5376 12.9673C13.5337 14.4702 11.8081 15.9639 10.3608 17.4482C8.91357 18.9141 7.79102 20.2222 6.99316 21.3726C6.21387 22.5229 5.82422 23.3765 5.82422 23.9331C5.82422 24.5825 6.21387 25.5103 6.99316 26.7163C7.79102 27.9224 8.91357 29.2583 10.3608 30.7241C11.8081 32.1714 13.5337 33.6372 15.5376 35.1216C17.5601 36.606 19.8052 37.979 22.2729 39.2407C24.7407 40.4839 27.3755 41.4858 30.1772 42.2466C32.9976 43.0073 35.9385 43.3877 39 43.3877C41.7832 43.3877 44.4736 43.063 47.0713 42.4136C49.6689 41.7642 52.1182 40.9106 54.4189 39.853L53.4727 41.4951C53.083 42.1631 52.8232 42.7568 52.6934 43.2764C52.582 43.7773 52.5264 44.5288 52.5264 45.5308C50.4668 46.2173 48.3052 46.7646 46.0415 47.1729C43.7778 47.5811 41.4307 47.7852 39 47.7852ZM39 39.4912C36.8477 39.4912 34.8252 39.0923 32.9326 38.2944C31.04 37.478 29.3794 36.3555 27.9507 34.9268C26.522 33.498 25.3994 31.8374 24.583 29.9448C23.7852 28.0522 23.3862 26.0298 23.3862 23.8774C23.3862 21.7251 23.7852 19.7026 24.583 17.8101C25.3994 15.9175 26.522 14.2568 27.9507 12.8281C29.3794 11.3994 31.04 10.2861 32.9326 9.48828C34.8252 8.67188 36.8477 8.26367 39 8.26367C41.1523 8.26367 43.1748 8.67188 45.0674 9.48828C46.96 10.2861 48.6206 11.3994 50.0493 12.8281C51.478 14.2568 52.5913 15.9175 53.3892 17.8101C54.2056 19.7026 54.6138 21.7251 54.6138 23.8774C54.6138 26.0298 54.2056 28.0522 53.3892 29.9448C52.5913 31.8374 51.478 33.498 50.0493 34.9268C48.6206 36.3555 46.96 37.478 45.0674 38.2944C43.1748 39.0923 41.1523 39.4912 39 39.4912ZM39 29.082C40.4287 29.082 41.644 28.5811 42.646 27.5791C43.6665 26.5586 44.1768 25.334 44.1768 23.9053C44.1768 22.4766 43.6665 21.2612 42.646 20.2593C41.644 19.2388 40.4287 18.7285 39 18.7285C37.5713 18.7285 36.3467 19.2388 35.3262 20.2593C34.3242 21.2612 33.8232 22.4766 33.8232 23.9053C33.8232 25.334 34.3242 26.5586 35.3262 27.5791C36.3467 28.5811 37.5713 29.082 39 29.082ZM59.9297 48.7871C58.8164 48.7871 57.9258 48.4346 57.2578 47.7295C56.6084 47.0244 56.2837 46.1616 56.2837 45.1411C56.2837 44.5288 56.4507 43.9258 56.7847 43.332L68.5298 22.291C68.8638 21.6787 69.3184 21.2148 69.8936 20.8994C70.4873 20.584 71.0996 20.4263 71.7305 20.4263C72.3242 20.4263 72.9087 20.584 73.4839 20.8994C74.0591 21.2148 74.5137 21.6787 74.8477 22.291L86.6484 43.332C86.9824 43.9258 87.1494 44.5288 87.1494 45.1411C87.1494 46.1616 86.8154 47.0244 86.1475 47.7295C85.4795 48.4346 84.5889 48.7871 83.4756 48.7871H59.9297ZM71.7026 44.6401C72.3335 44.6401 72.8716 44.4175 73.3169 43.9722C73.7808 43.5269 74.0127 42.9888 74.0127 42.3579C74.0312 41.7271 73.8086 41.189 73.3447 40.7437C72.8994 40.2983 72.3521 40.0757 71.7026 40.0757C71.0903 40.0757 70.5522 40.2983 70.0884 40.7437C69.6245 41.189 69.3926 41.7271 69.3926 42.3579C69.3926 42.9888 69.6245 43.5269 70.0884 43.9722C70.5522 44.4175 71.0903 44.6401 71.7026 44.6401ZM71.7026 38.1831C72.1851 38.1831 72.5747 38.0347 72.8716 37.7378C73.187 37.4409 73.354 37.0605 73.3726 36.5967L73.5952 28.8315C73.5952 28.2749 73.4189 27.8203 73.0664 27.4678C72.7324 27.1152 72.2778 26.939 71.7026 26.939C71.146 26.939 70.6914 27.1152 70.3389 27.4678C69.9863 27.8203 69.8193 28.2749 69.8379 28.8315L70.0605 36.5967C70.0791 37.0605 70.2368 37.4409 70.5337 37.7378C70.8491 38.0347 71.2388 38.1831 71.7026 38.1831Z" fill="#FEFDF1"/>
</svg>
