<svg width="38" height="28" viewBox="0 0 38 28" fill="none" xmlns="http://www.w3.org/2000/svg">
<path d="M37.175 4.78906C38 7.74219 38 14.0703 38 14.0703C38 14.0703 38 20.3281 37.175 23.3516C36.7625 25.0391 35.4562 26.3047 33.8749 26.7266C30.9186 27.5 19.2308 27.5 19.2308 27.5C19.2308 27.5 7.47429 27.5 4.51797 26.7266C2.93668 26.3047 1.6304 25.0391 1.21789 23.3516C0.392868 20.3281 0.392868 14.0703 0.392868 14.0703C0.392868 14.0703 0.392868 7.74219 1.21789 4.78906C1.6304 3.10156 2.93668 1.76562 4.51797 1.34375C7.47429 0.5 19.2308 0.5 19.2308 0.5C19.2308 0.5 30.9186 0.5 33.8749 1.34375C35.4562 1.76562 36.7625 3.10156 37.175 4.78906ZM15.3807 19.7656L25.1435 14.0703L15.3807 8.375V19.7656Z" fill="#FEFDF1"/>
</svg>
