<svg width="18" height="32" viewBox="0 0 18 32" fill="none" xmlns="http://www.w3.org/2000/svg">
<path d="M0.563974 17.0432H4.39685V31.4839C4.39685 31.769 4.64929 32 4.96082 32H11.4596C11.7711 32 12.0236 31.769 12.0236 31.4839V17.1112H16.4298C16.7163 17.1112 16.9573 16.9145 16.99 16.654L17.6593 11.3377C17.6776 11.1914 17.627 11.045 17.5201 10.9352C17.413 10.8254 17.2598 10.7625 17.0991 10.7625H12.0238V7.42999C12.0238 6.42539 12.6149 5.91597 13.7807 5.91597C13.9468 5.91597 17.0991 5.91597 17.0991 5.91597C17.4107 5.91597 17.6631 5.68485 17.6631 5.39985V0.519948C17.6631 0.234839 17.4107 0.00381935 17.0991 0.00381935H12.5259C12.4936 0.00237419 12.422 0 12.3164 0C11.5229 0 8.76471 0.142555 6.58597 1.97688C4.17194 4.0096 4.5075 6.44346 4.5877 6.86545V10.7624H0.563974C0.252435 10.7624 0 10.9934 0 11.2786V16.527C0 16.8121 0.252435 17.0432 0.563974 17.0432Z" fill="#FEFDF1"/>
</svg>
