<svg width="33" height="32" viewBox="0 0 33 32" fill="none" xmlns="http://www.w3.org/2000/svg">
<path d="M16.6675 7.75C21.1675 7.75 24.8818 11.4643 24.8818 15.9643C24.8818 20.5357 21.1675 24.1786 16.6675 24.1786C12.0961 24.1786 8.45326 20.5357 8.45326 15.9643C8.45326 11.4643 12.0961 7.75 16.6675 7.75ZM16.6675 21.3214C19.5961 21.3214 21.9533 18.9643 21.9533 15.9643C21.9533 13.0357 19.5961 10.6786 16.6675 10.6786C13.6676 10.6786 11.3104 13.0357 11.3104 15.9643C11.3104 18.9643 13.739 21.3214 16.6675 21.3214ZM27.0961 7.46429C27.0961 6.39286 26.239 5.53571 25.1675 5.53571C24.0961 5.53571 23.239 6.39286 23.239 7.46429C23.239 8.53571 24.0961 9.39286 25.1675 9.39286C26.239 9.39286 27.0961 8.53571 27.0961 7.46429ZM32.5247 9.39286C32.6675 12.0357 32.6675 19.9643 32.5247 22.6071C32.3818 25.1786 31.8104 27.3929 29.9533 29.3214C28.0961 31.1786 25.8104 31.75 23.239 31.8929C20.5961 32.0357 12.6676 32.0357 10.0247 31.8929C7.45326 31.75 5.23898 31.1786 3.31041 29.3214C1.45326 27.3929 0.881836 25.1786 0.738979 22.6071C0.596122 19.9643 0.596122 12.0357 0.738979 9.39286C0.881836 6.82143 1.45326 4.53571 3.31041 2.67857C5.23898 0.821429 7.45326 0.25 10.0247 0.107143C12.6676 -0.0357143 20.5961 -0.0357143 23.239 0.107143C25.8104 0.25 28.0961 0.821429 29.9533 2.67857C31.8104 4.53571 32.3818 6.82143 32.5247 9.39286ZM29.0961 25.3929C29.9533 23.3214 29.739 18.3214 29.739 15.9643C29.739 13.6786 29.9533 8.67857 29.0961 6.53571C28.5247 5.17857 27.4533 4.03571 26.0961 3.53571C23.9533 2.67857 18.9533 2.89286 16.6675 2.89286C14.3104 2.89286 9.31041 2.67857 7.23898 3.53571C5.81041 4.10714 4.73898 5.17857 4.16755 6.53571C3.31041 8.67857 3.52469 13.6786 3.52469 15.9643C3.52469 18.3214 3.31041 23.3214 4.16755 25.3929C4.73898 26.8214 5.81041 27.8929 7.23898 28.4643C9.31041 29.3214 14.3104 29.1071 16.6675 29.1071C18.9533 29.1071 23.9533 29.3214 26.0961 28.4643C27.4533 27.8929 28.5961 26.8214 29.0961 25.3929Z" fill="#FEFDF1"/>
</svg>
