<svg width="75" height="70" viewBox="0 0 75 70" fill="none" xmlns="http://www.w3.org/2000/svg">
<path fill-rule="evenodd" clip-rule="evenodd" d="M66.7053 4.2914C68.0139 4.28287 69.0814 5.35631 69.0898 6.68899L69.2695 35.2826C69.2779 36.6152 68.2239 37.7025 66.9154 37.711C65.6068 37.7196 64.5393 36.6461 64.5309 35.3134L64.3512 6.71989C64.3428 5.3872 65.3968 4.29993 66.7053 4.2914Z" fill="#FEFDF1"/>
<path d="M75 31.5194C74.9864 29.3069 72.3527 28.2161 70.8268 29.7909L69.2551 31.413C67.9494 32.7605 65.8183 32.7743 64.496 31.4438L62.9039 29.8418C61.3584 28.2867 58.7383 29.4113 58.7519 31.6239C58.7559 32.2826 59.0167 32.9127 59.477 33.3755L64.4048 38.331C65.8015 39.7356 68.0517 39.721 69.4308 38.2986L74.2968 33.2795C74.7511 32.8109 75.004 32.1778 75 31.5194Z" fill="#FEFDF1"/>
<path d="M74.8688 10.3761C74.8824 12.5887 72.2623 13.7133 70.7168 12.1582L69.1247 10.5562C67.8024 9.22571 65.6712 9.23947 64.3656 10.587L62.7939 12.2091C61.268 13.7839 58.6343 12.6931 58.6207 10.4806C58.6167 9.82216 58.8696 9.18906 59.3238 8.72053L64.1899 3.70145C65.569 2.27896 67.8192 2.26443 69.2159 3.66899L74.1437 8.62451C74.6039 9.08733 74.8648 9.7174 74.8688 10.3761Z" fill="#FEFDF1"/>
<path d="M29.0114 0.0901242C41.244 1.13065 51.5858 12.1859 52.463 24.7077C52.0708 39.1658 55.3409 53.3344 43.1904 63.7123C26.7337 77.7676 1.98886 66.812 0.253079 45.1686C0.168278 38.5049 0.0848015 31.8425 0 25.1788C0.469058 20.069 2.08956 16.3862 3.23438 14.2669C7.39628 6.56131 15.2232 0.812483 23.7113 0.0901242C25.1304 -0.0300414 27.5923 -0.0300414 29.0114 0.0901242ZM47.1642 35.0037C47.2649 27.7023 47.7154 21.1901 43.5615 14.9142C35.341 2.49207 17.4903 2.45111 9.21421 14.8323C5.01124 21.1205 5.45247 27.6681 5.55847 35.0037H47.1642ZM47.1642 40.4589H5.55847C5.05894 48.058 7.71163 55.1355 13.5219 59.8779C20.9937 65.9763 31.7277 65.9763 39.1995 59.8779C45.0097 55.1355 47.6637 48.058 47.1629 40.4589H47.1642Z" fill="#FEFDF1"/>
<path fill-rule="evenodd" clip-rule="evenodd" d="M25.8621 12.25C27.7665 12.25 29.3103 13.9868 29.3103 16.1292V24.9958C29.3103 27.1382 27.7665 28.875 25.8621 28.875C23.9576 28.875 22.4138 27.1382 22.4138 24.9958V16.1292C22.4138 13.9868 23.9576 12.25 25.8621 12.25Z" fill="#FEFDF1"/>
</svg>
