<?xml version="1.0" encoding="UTF-8"?>
<svg id="Calque_2" data-name="Calque 2" xmlns="http://www.w3.org/2000/svg" viewBox="0 0 464.72 148.75">
  <defs>
    <style>
      .cls-1 {
        fill: #f8e632;
      }
    </style>
  </defs>
  <g id="Calque_2-2" data-name="Calque 2">
    <g id="Calque_1-2" data-name="Calque 1-2">
      <g>
        <path class="cls-1" d="M398.03,147.52l9.83-5.06c1.34-9.61.54-19.26.83-28.92.06-2.02.78-3.86.83-6.03.74-33.54-.5-67.15-.77-100.6-.35-1.45-9.97-2.36-10.73-5.08h37.81c2.52,0,9.75,4.61,11.76,6.56,23.11,22.42,21.93,106.96,1.93,131.43-1.8,2.2-7.91,7.69-10.63,7.69h-40.86,0ZM428.59,145.22c21.1,1.55,27.45-28.76,29.68-44.72,3.11-22.33,4.22-97.25-30.81-96.41-1.56.04-2.24-.49-1.92,1.55,10.46-.99,17.61,6.54,21.92,15.1,12.94,25.7,12.62,85.16-1.02,110.66-2.57,4.8-5.92,9.54-10.98,11.91l-6.87,1.9h0ZM413.31,5.65h-2.29v138.06h2.29V5.65ZM440.46,136.52c19.07-21.5,18.93-92.83,4.01-116.61-5.41-8.62-16.18-16.48-25.7-9.18-1.87,41.32-.45,82.8-.87,124.19,4.86,8.23,16.14,8.83,22.55,1.61h.01Z"/>
        <path class="cls-1" d="M34.84,1.83c13.26,2.35,15.4,29.75,14.86,40.08-.66,12.55-2.76,18.6-11.69,26.97-.65.61-.69.54-.49,1.59,1.29-.03,2.6-.09,3.84.36,19.93,7.25,19.27,55.76,8.37,70.2-.96,1.28-6.93,6.48-8.02,6.48H.09c5.83-5.46,9.75-.24,10.68-10.31.93-10.08.65-23.09.8-33.5.49-32.39.05-64.91-.9-97.19-2.88-1.16-6.03-1.8-8.91-2.96C.61,3.09-.29,4.01.09,1.83h34.75ZM38.01,66.41c10.27-11.5,11.11-52.19-3.29-60.64-1.61-.94-3.73-1.58-5.61-1.63.97,1.59,3.57,1.55,5.31,2.7,10.21,6.75,9.37,37.18,6.68,47.79-1.25,4.94-3.58,10.54-7.41,13.96.83.93,3.91-1.72,4.31-2.17h0ZM15.36,5.65h-3.06l.14,136.82.59.87,2.33.36V5.65ZM23.55,7.34c-1.34.29-2.72.99-2.85,2.5l-.76,55.68c.68,3.69,9,3.21,11.74,1.81,11.56-5.92,10.95-38.49,7.38-49.13-2.56-7.64-6.64-12.79-15.52-10.86h.01ZM43.35,76.09c-1.73-1.63-4.25-2.77-6.23-4.08-1.52,1.59.89,1.6,1.93,2.62,14.35,14.07,14.86,51.6,2.23,67.12l-6.82,3.47c9.46.46,14.47-11.31,16.43-19.05,3.3-13.03,2.93-40.18-7.53-50.08h-.01ZM20.05,75.17l.2,60.53c4.72,6.54,16.84,8.83,22.19,1.86,11.22-14.61,9.06-74.05-22.38-62.4h-.01Z"/>
        <path class="cls-1" d="M259.02,1.83l-10.68,5.16-1.53,61.2c4.25-5.56,7.16-12.85,10.06-19.31,6.18-13.77,12-28.16,16.61-42.41-2.46-.95-5.04-1.8-7.44-2.91-1.09-.5-2.07.46-1.67-1.73h22.91c.35,1.77-.18,1.22-.98,1.72-1.88,1.17-6.3,1.89-7.47,3.4l-21.38,50.14c7.84,25.37,15.03,53.13,25.65,77.43.85,1.95,2.74,7.23,3.83,8.38,1.54,1.63,4.4,1.73,6.25,2.89.79.5,1.33-.05.98,1.72h-28.26l7.6-3.85c-3.05-14.7-7.65-29.3-12.4-43.6-2.76-8.3-5.84-18.72-9.36-26.54-.37-.81-.03-1.97-1.49-1.53-.49.15-3.33,8.24-3.45,9.54.8,18.49-.87,38.89.78,57.19.15,1.62.68,3.23.89,4.83,2.73.55,5.39,1.36,7.99,2.36,1.11.43,2.21-.73,1.8,1.6h-29.79c-.38-2.17.52-1.25,1.68-1.72,1.29-.52,7.4-2.09,7.53-2.56.12-28.71,1.72-57.46,1.54-86.11-.02-3.72-.78-7.9-.85-11.41-.26-12.95.58-25.91-.7-38.8-.18-.79-6.3-2.79-7.53-3.36-1.09-.5-2.07.46-1.67-1.73h30.55ZM242.98,5.65h-3.06v138.06h3.06V5.65ZM280.41,143.7l-27.49-79.32c-.42,1.8-1.24,3.52-.45,5.36l24.19,73.88,3.74.07h.01Z"/>
        <path class="cls-1" d="M107.79,147.52c1.23-2.6,5.75-2.63,7.22-4.61,2.13-2.87,5.5-26.45,6.4-31.75,6.23-36.48,11.22-73.25,17.2-109.75,4.14-3.78,4.26,1.77,4.85,4.84,8.01,41.8,11.99,86.39,21.98,127.54.47,1.92,1.59,8.01,2.33,9.12,1.33,1.99,6.64,1.85,6.46,4.6h-29.02c1.99-2.94,10.82-2.3,11.48-5.73l-5.38-40.03-25.53-.04-5.81,40.07c.65,3.36,8.9,2.59,10.72,5.73h-22.91.01ZM140.63,14.04c-1.94-.14-1.3-.16-1.5,1.15-.47,2.96-.29,6.06.11,9.02l19.87,118.21,2.91,1.28L140.63,14.04ZM149.8,94.89l-12.21-65.59-10.76,65.09c7.17,2.94,15.46,1.96,22.97.5h0Z"/>
        <path class="cls-1" d="M330.82,147.52c2.48-3.39,6.62-2.21,8.2-6.69,2.59-7.31,4.05-20.75,5.44-28.89,6.3-36.81,11.06-73.92,17.45-110.7.31-1.75,3.45-1.23,3.91.34,6.23,35.92,11.23,72.12,17.94,107.94,1.66,8.87,3.24,18.66,5.48,27.33.4,1.54.91,5.08,1.57,6.06,1.32,1.98,6.64,1.85,6.46,4.6h-28.26c1.83-3.14,10.04-2.36,10.71-5.72l-5.37-40.04-25.53-.04-5.82,40.06.79,1.55c3.02,1.51,7.74,1.47,9.94,4.18h-22.91v.02ZM385.04,143.7l-21.76-130.42-1.45,6c6.5,41.35,13.62,82.74,20.85,123.98l2.36.44h0ZM372.77,94.83l-12.16-65.53-10.76,65.1c.4,2.14,19.79,2.34,22.92.43Z"/>
        <path class="cls-1" d="M223.88.31l.76,33.56c-1.14-.16-1.26-3.29-1.41-4.3-.5-3.21-1.15-15.84-2.34-17.5-13.97-8.62-25.6-6.73-33.3,8.06-12.8,24.58-12.67,92.23,5.76,114.03,7.38,8.73,16.73,9.91,24.42.78l6.87-14.11-6.06,27.13c-10.7-1.8-16.05,3.89-26.52-1.84-22.01-12.03-24.38-65.3-22.4-87.45,1.4-15.71,6.69-44.17,19.49-54.53,10.87-8.8,22.46-.28,34.73-3.83h0ZM206.31,2.61c-20.13-3.25-28.24,21.1-31.7,36.59-4.87,21.8-5,48.54-.14,70.33,3.18,14.26,12.26,38.86,30.71,36.47,1.11-.14,2.38-.58,1.13-1.52-9.77,1.13-16.56-6.02-21.01-13.72-14.48-25.03-13.75-75.05-5.15-102.04,2.7-8.49,8.73-21.12,17.77-24.21l8.39-1.9h0Z"/>
        <path class="cls-1" d="M87.93,1.83c-2.23,2.51-6.85,3.06-9.95,4.18-1.47,1.07-.59,11.89-.71,14.54-1.81,37.19-.36,74.72-.73,112.02,1.41,10.02,17.9,9.37,24.96,6.38l4.75-26.52-1.52,35.08h-48.12l9.17-4.19c2.02-1.68,1.36-27.53,1.49-32.07.82-28.73,1.09-57.37,0-86.13-.17-4.37.9-14.02-.12-17.43s-8.72-2.91-10.54-5.87h31.32ZM71.89,5.65h-2.29v138.06h2.29V5.65Z"/>
        <path class="cls-1" d="M330.05.31v34.32l-3.26-23.06c-8.36-10.63-16.71-5.95-19.87,5.68-8.83,32.54,18.16,46.54,23.54,74.56,2.7,14.06,2.27,40.69-7.66,51.9-7.76,8.76-15.03,3.23-24.83,3.81l-.75-34.32,1.42,5.82c1.58,6.96-.64,17.23,5.96,21.51,11.11,7.2,16.07-3.44,18.35-12.7,8.36-34.03-17.38-46.73-23.1-75.61-2.5-12.61-1.63-34.6,5.62-45.58,7.3-11.07,14.38-4.18,24.59-6.33h-.01ZM317.06,1.84c-16.98,2.26-17.91,29.8-16.79,43.08,1.97,23.39,22.86,40.27,25.18,61.81,1.19,11.07.05,29.7-9.53,36.99-1.07.82-4.4,1.01-3.82,2.29,15-1.91,17.2-26.59,16.41-38.52-1.73-25.86-21.84-39.52-25.77-62.74-2.1-12.45-.92-27.8,6.95-38.06l7.36-4.84h.01Z"/>
      </g>
    </g>
  </g>
</svg>