<svg width="76" height="54" viewBox="0 0 76 54" fill="none" xmlns="http://www.w3.org/2000/svg">
<path d="M30.6523 51.481C30.0029 51.481 29.3906 51.3418 28.8154 51.0635C28.2402 50.7852 27.6372 50.3398 27.0063 49.7275L15.1499 38.4834C14.9644 38.3164 14.7324 38.2329 14.4541 38.2329H6.46631C4.59229 38.2329 3.1543 37.7227 2.15234 36.7021C1.15039 35.6816 0.649414 34.1602 0.649414 32.1377V21.7842C0.649414 19.7803 1.15039 18.2681 2.15234 17.2476C3.1543 16.2085 4.59229 15.689 6.46631 15.689H14.4541C14.7324 15.689 14.9644 15.6055 15.1499 15.4385L27.0063 4.30566C27.7114 3.61914 28.3237 3.12744 28.8433 2.83057C29.3628 2.53369 29.9473 2.38525 30.5967 2.38525C31.543 2.38525 32.313 2.70996 32.9067 3.35938C33.5005 3.99023 33.7974 4.76025 33.7974 5.66943V48.3638C33.7974 49.2544 33.5005 49.9966 32.9067 50.5903C32.3315 51.1841 31.5801 51.481 30.6523 51.481ZM43.7056 38.7617C43.1489 38.3721 42.8335 37.8711 42.7593 37.2588C42.6851 36.6465 42.8613 36.0435 43.2881 35.4497C44.0859 34.3179 44.7075 33.019 45.1528 31.5532C45.5981 30.0688 45.8208 28.5195 45.8208 26.9053C45.8208 25.291 45.5981 23.7417 45.1528 22.2573C44.7261 20.7729 44.1045 19.4741 43.2881 18.3608C42.8428 17.7856 42.6572 17.1919 42.7314 16.5796C42.8242 15.9487 43.1489 15.4385 43.7056 15.0488C44.188 14.7148 44.7168 14.6035 45.292 14.7148C45.8672 14.8262 46.3403 15.1509 46.7114 15.689C47.7876 17.0991 48.6226 18.7876 49.2163 20.7544C49.8286 22.7212 50.1348 24.7715 50.1348 26.9053C50.1348 29.0391 49.8286 31.0894 49.2163 33.0562C48.6226 35.0229 47.7876 36.7114 46.7114 38.1216C46.3403 38.6597 45.8672 38.9844 45.292 39.0957C44.7168 39.1885 44.188 39.0771 43.7056 38.7617ZM54.0591 46.0259C53.5581 45.6733 53.2705 45.2095 53.1963 44.6343C53.1221 44.0405 53.2798 43.4561 53.6694 42.8809C55.1724 40.71 56.3413 38.2515 57.1763 35.5054C58.0298 32.7407 58.4565 29.874 58.4565 26.9053C58.4565 23.9365 58.0391 21.0698 57.2041 18.3052C56.3691 15.5405 55.1909 13.082 53.6694 10.9297C53.2612 10.3545 53.0942 9.7793 53.1685 9.2041C53.2612 8.61035 53.5581 8.13721 54.0591 7.78467C54.5786 7.43213 55.126 7.31152 55.7012 7.42285C56.2764 7.53418 56.7495 7.85889 57.1206 8.39697C58.9204 10.8091 60.312 13.6387 61.2954 16.8857C62.2788 20.1328 62.7705 23.4727 62.7705 26.9053C62.7705 30.3379 62.2695 33.6685 61.2676 36.897C60.2842 40.1255 58.9019 42.9644 57.1206 45.4136C56.7495 45.9517 56.2764 46.2764 55.7012 46.3877C55.126 46.4805 54.5786 46.3599 54.0591 46.0259ZM64.4961 53.4014C63.9766 53.0488 63.6797 52.5664 63.6055 51.9541C63.5312 51.3604 63.689 50.7852 64.0786 50.2285C65.5073 48.1133 66.7412 45.8218 67.7803 43.354C68.8379 40.8677 69.6543 38.2515 70.2295 35.5054C70.8047 32.7407 71.0923 29.874 71.0923 26.9053C71.0923 23.918 70.8047 21.0513 70.2295 18.3052C69.6543 15.5405 68.8379 12.9336 67.7803 10.4844C66.7412 8.0166 65.5073 5.71582 64.0786 3.58203C63.689 3.00684 63.5312 2.42236 63.6055 1.82861C63.6797 1.23486 63.9766 0.761719 64.4961 0.40918C64.9785 0.0566412 65.5166 -0.0546869 66.1104 0.0751959C66.7041 0.186524 67.1865 0.529786 67.5576 1.10498C69.1533 3.46143 70.5356 6.0127 71.7046 8.75879C72.8735 11.4863 73.7734 14.3716 74.4043 17.4146C75.0352 20.4575 75.3506 23.6211 75.3506 26.9053C75.3506 30.1895 75.0352 33.353 74.4043 36.396C73.792 39.439 72.9014 42.3335 71.7324 45.0796C70.582 47.8071 69.1904 50.3491 67.5576 52.7056C67.1865 53.2622 66.7041 53.6055 66.1104 53.7354C65.5166 53.8652 64.9785 53.7539 64.4961 53.4014Z" fill="#FEFDF1"/>
</svg>
